<!-- <?xml version="1.0" encoding="UTF-8"?>
<!DOCTYPE svg PUBLIC "-//W3C//DTD SVG 1.1//EN" "http://www.w3.org/Graphics/SVG/1.1/DTD/svg11.dtd"> -->
<svg xmlns="http://www.w3.org/2000/svg" xmlns:xlink="http://www.w3.org/1999/xlink" version="1.1" style="display: none;">

  <!-- icons from: https://materialdesignicons.com/ -->

  <!-- account-outline -->
  <symbol id="user" viewBox="0 0 24 24">
    <path d="M12,13C9.33,13 4,14.33 4,17V20H20V17C20,14.33 14.67,13 12,13M12,4A4,4 0 0,0 8,8A4,4 0 0,0 12,12A4,4 0 0,0 16,8A4,4 0 0,0 12,4M12,14.9C14.97,14.9 18.1,16.36 18.1,17V18.1H5.9V17C5.9,16.36 9,14.9 12,14.9M12,5.9A2.1,2.1 0 0,1 14.1,8A2.1,2.1 0 0,1 12,10.1A2.1,2.1 0 0,1 9.9,8A2.1,2.1 0 0,1 12,5.9Z" />
  </symbol>

  <!-- timer -->
  <symbol id="timer" viewBox="0 0 24 24">
    <path d="M12,20A7,7 0 0,1 5,13A7,7 0 0,1 12,6A7,7 0 0,1 19,13A7,7 0 0,1 12,20M19.03,7.39L20.45,5.97C20,5.46 19.55,5 19.04,4.56L17.62,6C16.07,4.74 14.12,4 12,4A9,9 0 0,0 3,13A9,9 0 0,0 12,22C17,22 21,17.97 21,13C21,10.88 20.26,8.93 19.03,7.39M11,14H13V8H11M15,1H9V3H15V1Z" />
  </symbol>

  <!-- message-text-outline -->
  <symbol id="message" viewBox="0 0 24 24">
    <path d="M20,2A2,2 0 0,1 22,4V16A2,2 0 0,1 20,18H6L2,22V4C2,2.89 2.9,2 4,2H20M4,4V17.17L5.17,16H20V4H4M6,7H18V9H6V7M6,11H15V13H6V11Z" />
  </symbol>

  <!-- calendar -->
  <symbol id="calendar" viewBox="0 0 24 24">
    <path d="M19,19H5V8H19M16,1V3H8V1H6V3H5C3.89,3 3,3.89 3,5V19A2,2 0 0,0 5,21H19A2,2 0 0,0 21,19V5C21,3.89 20.1,3 19,3H18V1M17,12H12V17H17V12Z" />
  </symbol>
  
  <!-- pound -->
  <symbol id="pound" viewBox="0 0 24 24">
    <path d="M5.41,21L6.12,17H2.12L2.47,15H6.47L7.53,9H3.53L3.88,7H7.88L8.59,3H10.59L9.88,7H15.88L16.59,3H18.59L17.88,7H21.88L21.53,9H17.53L16.47,15H20.47L20.12,17H16.12L15.41,21H13.41L14.12,17H8.12L7.41,21H5.41M9.53,9L8.47,15H14.47L15.53,9H9.53Z" />
  </symbol>

  <!-- link -->
  <symbol id="link" viewBox="0 0 24 24">
    <path d="M10.59,13.41C11,13.8 11,14.44 10.59,14.83C10.2,15.22 9.56,15.22 9.17,14.83C7.22,12.88 7.22,9.71 9.17,7.76V7.76L12.71,4.22C14.66,2.27 17.83,2.27 19.78,4.22C21.73,6.17 21.73,9.34 19.78,11.29L18.29,12.78C18.3,11.96 18.17,11.14 17.89,10.36L18.36,9.88C19.54,8.71 19.54,6.81 18.36,5.64C17.19,4.46 15.29,4.46 14.12,5.64L10.59,9.17C9.41,10.34 9.41,12.24 10.59,13.41M13.41,9.17C13.8,8.78 14.44,8.78 14.83,9.17C16.78,11.12 16.78,14.29 14.83,16.24V16.24L11.29,19.78C9.34,21.73 6.17,21.73 4.22,19.78C2.27,17.83 2.27,14.66 4.22,12.71L5.71,11.22C5.7,12.04 5.83,12.86 6.11,13.65L5.64,14.12C4.46,15.29 4.46,17.19 5.64,18.36C6.81,19.54 8.71,19.54 9.88,18.36L13.41,14.83C14.59,13.66 14.59,11.76 13.41,10.59C13,10.2 13,9.56 13.41,9.17Z" />
  </symbol>

  <!-- bookmark-outline -->
  <symbol id="bookmark" viewBox="0 0 24 24">
    <path d="M17,18L12,15.82L7,18V5H17M17,3H7A2,2 0 0,0 5,5V21L12,18L19,21V5C19,3.89 18.1,3 17,3Z" />
  </symbol>

  <!-- format-list-bulleted -->
  <symbol id="list" viewBox="0 0 24 24">
    <path d="M7,5H21V7H7V5M7,13V11H21V13H7M4,4.5A1.5,1.5 0 0,1 5.5,6A1.5,1.5 0 0,1 4,7.5A1.5,1.5 0 0,1 2.5,6A1.5,1.5 0 0,1 4,4.5M4,10.5A1.5,1.5 0 0,1 5.5,12A1.5,1.5 0 0,1 4,13.5A1.5,1.5 0 0,1 2.5,12A1.5,1.5 0 0,1 4,10.5M7,19V17H21V19H7M4,16.5A1.5,1.5 0 0,1 5.5,18A1.5,1.5 0 0,1 4,19.5A1.5,1.5 0 0,1 2.5,18A1.5,1.5 0 0,1 4,16.5Z" />
  </symbol>

</svg>